<svg width="16" height="16" viewBox="0 0 16 16" fill="none" xmlns="http://www.w3.org/2000/svg">
<path d="M15.2188 10.375C15.2188 10.2188 15.125 10.0312 14.9688 9.9375L13.5 9.125C13.5625 8.75 13.625 8.375 13.625 8C13.625 7.65625 13.5625 7.28125 13.5 6.90625L14.9688 6.09375C15.125 6 15.2188 5.8125 15.2188 5.625C15.2188 5.1875 13.9062 2.53125 13.2188 2.53125C13.125 2.53125 13.0312 2.5625 12.9688 2.625L11.5 3.46875C10.9375 2.96875 10.3125 2.625 9.625 2.375V0.6875C9.625 0.4375 9.4375 0.21875 9.21875 0.1875C8.6875 0.0625 8.15625 0 7.625 0C7.0625 0 6.53125 0.0625 6 0.1875C5.78125 0.25 5.625 0.4375 5.625 0.6875V2.375C4.90625 2.625 4.28125 2.96875 3.71875 3.46875L2.25 2.625C2.1875 2.5625 2.09375 2.53125 2 2.53125C1.375 2.53125 0 5.09375 0 5.625C0 5.8125 0.09375 6 0.25 6.09375L1.71875 6.90625C1.65625 7.28125 1.625 7.625 1.625 8C1.625 8.375 1.65625 8.75 1.71875 9.125L0.25 9.9375C0.09375 10.0312 0 10.2188 0 10.375C0 10.8438 1.3125 13.5 2 13.5C2.09375 13.5 2.1875 13.4688 2.25 13.4062L3.71875 12.5625C4.28125 13.0312 4.90625 13.4062 5.625 13.6562V15.3438C5.625 15.5938 5.78125 15.7812 6 15.8438C6.53125 15.9375 7.0625 16 7.59375 16C8.09375 16 8.65625 15.9688 9.1875 15.8438C9.4375 15.7812 9.625 15.5938 9.625 15.3438V13.6562C10.3125 13.4062 10.9375 13.0312 11.5 12.5625L12.9688 13.4062C13.0312 13.4688 13.125 13.5 13.2188 13.5C13.8438 13.4688 15.2188 10.9375 15.2188 10.375ZM7.625 10.5C6.21875 10.5 5.125 9.40625 5.125 8C5.125 6.625 6.21875 5.5 7.625 5.5C9 5.5 10.125 6.625 10.125 8C10.125 9.40625 9 10.5 7.625 10.5Z" fill="#030626"/>
</svg>
