<svg width="16" height="14" viewBox="0 0 16 14" fill="none" xmlns="http://www.w3.org/2000/svg">
<path d="M13 0H11C10.4375 0 10 0.46875 10 1C10 1.5625 10.4375 2 11 2H13C13.5312 2 14 2.46875 14 3V11C14 11.5625 13.5312 12 13 12H11C10.4375 12 10 12.4688 10 13C10 13.5625 10.4375 14 11 14H13C14.6562 14 16 12.6875 16 11V3C16 1.34375 14.6562 0 13 0ZM10.6875 6.3125L6.6875 2.3125C6.3125 1.90625 5.65625 1.90625 5.28125 2.3125C4.875 2.6875 4.875 3.34375 5.28125 3.71875L7.5625 6H1C0.4375 6 0 6.46875 0 7C0 7.5625 0.4375 8 1 8H7.5625L5.28125 10.3125C4.875 10.6875 4.875 11.3438 5.28125 11.7188C5.65625 12.125 6.3125 12.125 6.6875 11.7188L10.6875 7.71875C11.0938 7.34375 11.0938 6.6875 10.6875 6.3125Z" fill="#030626"/>
</svg>
